<?xml version="1.0" encoding="UTF-8"?>
<svg xmlns="http://www.w3.org/2000/svg" width="24" height="24" viewBox="0 0 24 24" fill="white">
  <path d="M21.598 11.064c-.243-.213-.558-.351-.88-.399-.318-.05-.682-.044-1.05-.041-.309.002-.615.008-.916.027-.272-.455-.525-.908-.781-1.375l-.482-.892c-.198-.368-.414-.785-.636-1.212-.226-.423-.466-.852-.705-1.283l-.212-.411c-.185-.358-.367-.724-.512-1.098-.299-.764-.526-1.511-.469-2.225.04-.487.231-.953.505-1.155.273-.203.594-.147.924-.033l.234.08c.174.059.355.118.519.214.342.202.52.578.402.96-.119.382-.511.552-.836.569-.326.017-.61-.085-.695-.131-.085-.046-.137-.074-.162-.059-.024.016-.036.056-.036.056s.36.192.097.368c.062.176.149.382.238.595.088.213.181.433.293.661.112.229.241.465.388.706.573.934 1.345 1.936 2.187 2.989.604.751 1.249 1.522 1.922 2.286.673.765 1.375 1.525 2.077 2.256.351.365.701.729 1.051 1.076l.302.302c.26.259.522.509.787.75.364.333.732.657 1.119.946.193.145.392.281.604.401.212.12.439.224.679.31.12.043.245.081.375.113.13.033.267.06.405.081.276.042.558.06.835.068.139.004.278.004.416 0 .139-.004.276-.015.412-.033.272-.035.534-.093.776-.176.121-.041.239-.09.352-.145.114-.055.223-.117.326-.185.206-.136.388-.294.522-.473.134-.179.219-.38.219-.38s-.082.045-.196.075c-.115.03-.271.047-.437.034-.166-.013-.341-.056-.505-.119-.163-.063-.312-.145-.427-.233-.115-.088-.196-.176-.196-.176l-.196-.203c-.128-.134-.302-.309-.491-.497-.19-.188-.395-.39-.615-.597-.219-.207-.452-.421-.692-.639-.24-.218-.487-.44-.739-.666-1.012-.904-2.081-1.857-3.142-2.864-1.059-1.008-2.109-2.069-3.088-3.187-.49-.559-.963-1.136-1.399-1.728-.219-.296-.427-.598-.611-.9-.092-.151-.177-.303-.254-.455-.039-.076-.074-.152-.105-.228l-.096-.227c-.096-.227-.182-.45-.235-.662-.054-.212-.074-.414-.054-.591.019-.177.078-.329.156-.445.078-.116.174-.196.269-.256.095-.06.19-.101.275-.127.086-.026.161-.039.219-.046.058-.007.097-.007.097-.007s-.036-.014-.104-.021c-.069-.007-.169-.007-.291.007-.122.014-.266.047-.422.107-.156.06-.324.147-.49.273-.166.127-.33.294-.469.503-.139.209-.251.461-.319.747-.034.143-.051.293-.057.448-.006.155-.001.315.016.479.033.328.114.677.224 1.039.109.362.248.736.412 1.12.33.769.78 1.57 1.252 2.388.472.818.966 1.652 1.463 2.486.996 1.67 2.021 3.34 2.923 4.93.226.397.443.787.648 1.168.102.19.2.377.294.561.047.092.093.183.135.272l.127.255c.142.283.217.56.217.56s.142-.229.217-.56l.127-.255c.042-.089.088-.18.135-.272.094-.184.191-.371.294-.561.205-.381.422-.771.648-1.168.902-1.59 1.927-3.26 2.923-4.93.497-.834.991-1.668 1.463-2.486.472-.818.922-1.619 1.252-2.388.164-.384.303-.758.412-1.12.11-.362.191-.711.224-1.039.017-.164.022-.324.016-.479-.006-.155-.023-.305-.057-.448-.068-.286-.18-.538-.319-.747-.139-.209-.303-.376-.469-.503-.166-.126-.334-.213-.49-.273-.156-.06-.3-.093-.422-.107-.122-.014-.222-.014-.291-.007-.068.007-.104.021-.104.021s.039 0 .097.007c.058.007.133.02.219.046.085.026.18.067.275.127.095.06.191.14.269.256.078.116.137.268.156.445.02.177 0 .379-.054.591-.053.212-.139.435-.235.662l-.096.227c-.031.076-.066.152-.105.228-.077.152-.162.304-.254.455-.184.302-.392.604-.611.9-.436.592-.909 1.169-1.399 1.728-.979 1.118-2.029 2.179-3.088 3.187-1.061 1.007-2.13 1.96-3.142 2.864-.252.226-.499.448-.739.666-.24.218-.473.432-.692.639-.22.207-.425.409-.615.597-.189.188-.363.363-.491.497l-.196.203s-.081.088-.196.176c-.115.088-.264.17-.427.233-.164.063-.339.106-.505.119-.166.013-.322-.004-.437-.034-.114-.03-.196-.075-.196-.075s.085.201.219.38c.134.179.316.337.522.473.103.068.212.13.326.185.113.055.231.104.352.145.242.083.504.141.776.176.136.018.273.029.412.033.138.004.277.004.416 0 .277-.008.559-.026.835-.068.138-.021.275-.048.405-.081.13-.032.255-.07.375-.113.24-.086.467-.19.679-.31.212-.12.411-.256.604-.401.387-.289.755-.613 1.119-.946.265-.241.527-.491.787-.75l.302-.302c.35-.347.7-.711 1.051-1.076.702-.731 1.404-1.491 2.077-2.256.673-.764 1.318-1.535 1.922-2.286.842-1.053 1.614-2.055 2.187-2.989.147-.241.276-.477.388-.706.112-.228.205-.448.293-.661.089-.213.176-.419.238-.595.061-.176.097-.368.097-.368s-.012-.04-.036-.056c-.025-.015-.077.013-.162.059-.085.046-.369.148-.695.131-.325-.017-.717-.187-.836-.569-.118-.382.06-.758.402-.96.164-.096.345-.155.519-.214l.234-.08c.33-.114.651-.17.924.033.274.202.465.668.505 1.155.057.714-.17 1.461-.469 2.225-.145.374-.327.74-.512 1.098l-.212.411c-.239.431-.479.86-.705 1.283-.222.427-.438.844-.636 1.212l-.482.892c-.256.467-.509.92-.781 1.375-.301-.019-.607-.025-.916-.027-.368-.003-.732-.009-1.05.041-.322.048-.637.186-.88.399-.243.213-.437.493-.478.812-.041.319.037.65.193.921.156.271.392.487.654.634.262.147.55.224.835.224h.001c.285 0 .573-.077.835-.224.262-.147.498-.363.654-.634.156-.271.234-.602.193-.921-.041-.319-.235-.599-.478-.812zm-7.598 5.936c-.542 0-.98-.438-.98-.98s.438-.98.98-.98.98.438.98.98-.438.98-.98.98zm0-3.92c-1.627 0-2.94 1.313-2.94 2.94s1.313 2.94 2.94 2.94 2.94-1.313 2.94-2.94-1.313-2.94-2.94-2.94zm2.94-2.94c-.542 0-.98-.438-.98-.98s.438-.98.98-.98.98.438.98.98-.438.98-.98.98zm0-3.92c-1.627 0-2.94 1.313-2.94 2.94s1.313 2.94 2.94 2.94 2.94-1.313 2.94-2.94-1.313-2.94-2.94-2.94z"/>
</svg>
